<svg width="100px" height="100px" enable-background="new 0 0 100 100" fill="#000000" version="1.1" viewBox="0 0 100 100" xml:space="preserve" xmlns="http://www.w3.org/2000/svg"><g><path d="m49.947 0a50 50 0 0 0-49.947 50 50 50 0 0 0 50 50 50 50 0 0 0 50-50 50 50 0 0 0-50-50 50 50 0 0 0-0.052734 0zm5.3164 4.5176c1.5146-0.13751 2.8725 0.8815 3.0195 2.2695 0.77387 7.3172-2.082 12.257-4.8418 17.033-3.0538 5.2806-5.9385 10.267-3.9023 18.852 0.3234 1.3629-0.62545 2.706-2.1191 3-0.19726 0.03892-0.39442 0.058594-0.58789 0.058594-1.2765 0-2.4234-0.80912-2.7031-1.9922-2.4639-10.382 1.1905-16.701 4.4141-22.275 2.6004-4.4953 4.846-8.3773 4.2305-14.191-0.14605-1.3872 0.96904-2.6207 2.4902-2.7539zm-17.104 5.5645c0.18326-0.011947 0.36939-0.007076 0.55859 0.015625 1.5164 0.18075 2.5859 1.4481 2.3867 2.8301-0.39737 2.7596-1.9058 5.3336-3.502 8.0586-2.6185 4.472-5.5867 9.5424-4.7246 17.043 0.15838 1.3872-0.94271 2.6281-2.4648 2.7734-0.097682 0.010378-0.19428 0.013672-0.29102 0.013672-1.3979 0-2.6011-0.9645-2.75-2.2617-1.0394-9.039 2.5044-15.085 5.3477-19.943 1.4112-2.4094 2.6299-4.4909 2.8945-6.3398 0.17426-1.21 1.2621-2.1058 2.5449-2.1895zm34.639 1.4551c1.5212 0.12021 2.6503 1.3435 2.5156 2.7324-0.60886 6.3512-3.1856 10.494-5.2578 13.824-2.1367 3.435-3.6822 5.9175-3.0449 9.8965 0.21623 1.3794-0.83115 2.6605-2.3457 2.8594-0.13277 0.0173-0.26661 0.027344-0.39844 0.027344-1.3533 0-2.5381-0.9064-2.7363-2.1621-0.9057-5.6913 1.4434-9.4635 3.7129-13.111 1.9906-3.2041 4.0512-6.5171 4.5566-11.773 0.13277-1.388 1.4721-2.4184 2.998-2.293zm-59.475 38.799h68.281c0.37935 0 0.69336 0.2832 0.69336 0.63086 0 0.27674-0.006125 0.54893-0.015625 0.80664h4.4727c5.3849 0 9.7637 3.9939 9.7637 8.9043 0 4.9113-4.3788 8.9004-9.7637 8.9004h-10.615c-4.1482 5.6645-11.802 11.66-17.199 11.66h-22.953c-6.9326 0-23.355-11.747-23.355-30.271 0-0.34766 0.30826-0.63086 0.69141-0.63086zm71.086 5.4551c-1.3732 0-2.4376 0.82638-2.9336 2.2715-0.50169 2.1413-1.2454 4.2498-2.209 6.2734-0.01328 0.066591-0.035 0.13349-0.0625 0.19922-0.076818 0.18939 0.050356 0.39862 0.13477 0.50586 0.22951 0.30182 0.63693 0.51953 0.97266 0.51953h6.4434c2.9532 0 5.3564-2.19 5.3555-4.8848 0-2.6922-2.4022-4.8848-5.3555-4.8848h-2.3457zm-59.658 28.496h45.43c1.2405 0 2.248 0.92265 2.248 2.0547 0 1.1303-1.0066 2.0508-2.248 2.0508h-45.43c-1.2424 0-2.2539-0.92047-2.2539-2.0508 0-1.1329 1.0125-2.0547 2.2539-2.0547z" fill="#ccc" stroke-width="6.8354"/></g></svg>
