<svg enable-background="new 0 0 100 100" fill="#000000" version="1.1" viewBox="0 0 100 100" xml:space="preserve" xmlns="http://www.w3.org/2000/svg"><path d="m77.989 75.877-47.658-4.8409c-1.3023-0.13228-2.4705 0.81954-2.6028 2.1228-0.13208 1.3003 0.81994 2.4665 2.1232 2.5989l47.658 4.8409c1.3023 0.13228 2.4674-0.81885 2.5995-2.1192 0.13228-1.3023-0.81854-2.4704-2.1198-2.6025z"/><path d="m22.809 39.731c-1.371-1.0668-2.742-2.1494-4.2677-2.9801-1.5257-0.83062-3.2306-1.4045-4.9674-1.3698-0.99985 0.02-1.9879 0.24006-2.9878 0.25587-1.7182 0.02717-3.4393-0.57359-4.7679-1.6633-1.3286-1.0898-2.2544-2.6597-2.5659-4.3497-0.24919-1.352-0.11059-2.7682 0.35879-4.0604s1.2649-2.4596 2.2689-3.3988c2.008-1.8784 4.8086-2.7964 7.5581-2.7757 2.92 0.0219 5.7398 1.0291 8.4219 2.1837 2.6821 1.1546 5.3152 2.4767 8.147 3.1896 4.8918 1.2316 10.04 0.57097 15.071 0.94089 2.5154 0.18496 5.0401 0.63891 7.3369 1.6812 2.2968 1.0423 4.3618 2.7119 5.5696 4.9261 1.0132 1.8576 1.3847 4.0443 1.1217 6.1438-0.26301 2.0995-1.1486 4.1064-2.459 5.7678s-3.037 2.9798-4.951 3.8819c-1.914 0.90211-4.012 1.3929-6.1243 1.5169-4.2246 0.24809-8.4368-0.96099-12.224-2.8501-3.7868-1.8891-7.199-4.4411-10.539-7.04z" fill="#7f5800"/><path d="m85.199 27.233-4.1521 0.99698c-0.05808-0.24927-0.12348-0.51179-0.19529-0.77719-0.09021-0.33341-0.45414-0.53485-0.80631-0.45029l-63.389 15.221c-0.35569 0.0854-0.56844 0.42532-0.47823 0.75873 4.807 17.765 23.101 25.371 29.537 23.825l21.309-5.1166c5.0105-1.2031 10.56-8.6583 12.941-15.015l9.8546-2.3662c4.999-1.2004 8.0294-6.0033 6.7549-10.713-1.2742-4.7092-6.3764-7.563-11.375-6.3626zm3.5777 13.222-5.9825 1.4365c-0.31167 0.07484-0.74548-0.04181-1.0369-0.2801-0.10619-0.08402-0.27782-0.25745-0.25565-0.4562 0.0085-0.06916 0.01167-0.13706 0.0067-0.20388 0.36937-2.1555 0.51117-4.3447 0.42126-6.5101 0.08546-1.4964 0.85986-2.5259 2.1347-2.832l2.1773-0.5228c2.7416-0.65831 5.5415 0.90845 6.2401 3.4903 0.70016 2.5841-0.96348 5.22-3.7051 5.8783z" stroke-width=".88184"/></svg>
