<?xml version="1.0" encoding="UTF-8" standalone="no"?>
<svg
   xmlns:dc="http://purl.org/dc/elements/1.1/"
   xmlns:cc="http://creativecommons.org/ns#"
   xmlns:rdf="http://www.w3.org/1999/02/22-rdf-syntax-ns#"
   xmlns:svg="http://www.w3.org/2000/svg"
   xmlns="http://www.w3.org/2000/svg"
   xmlns:sodipodi="http://sodipodi.sourceforge.net/DTD/sodipodi-0.dtd"
   xmlns:inkscape="http://www.inkscape.org/namespaces/inkscape"
   height="100px"
   width="100px"
   fill="#000000"
   version="1.1"
   x="0px"
   y="0px"
   viewBox="0 0 100 100"
   enable-background="new 0 0 100 100"
   xml:space="preserve"
   id="svg855"
   sodipodi:docname="coffee-2.svg"
   inkscape:version="1.0 (4035a4f, 2020-05-01)"
   inkscape:dataloss="true"
   inkscape:export-filename="/Users/brian/Projects/brocef/assets/images/coffee-2-raster.png"
   inkscape:export-xdpi="96"
   inkscape:export-ydpi="96"><metadata
     id="metadata861"><rdf:RDF><cc:Work
         rdf:about=""><dc:format>image/svg+xml</dc:format><dc:type
           rdf:resource="http://purl.org/dc/dcmitype/StillImage" /><dc:title></dc:title></cc:Work></rdf:RDF></metadata><defs
     id="defs859"><inkscape:path-effect
       effect="spiro"
       id="path-effect1433"
       is_visible="true"
       lpeversion="1" /></defs><sodipodi:namedview
     pagecolor="#ffffff"
     bordercolor="#666666"
     borderopacity="1"
     objecttolerance="10"
     gridtolerance="10"
     guidetolerance="10"
     inkscape:pageopacity="0"
     inkscape:pageshadow="2"
     inkscape:window-width="2048"
     inkscape:window-height="1107"
     id="namedview857"
     showgrid="false"
     inkscape:zoom="4.2410456"
     inkscape:cx="32.33466"
     inkscape:cy="36.370341"
     inkscape:window-x="1680"
     inkscape:window-y="23"
     inkscape:window-maximized="0"
     inkscape:current-layer="layer1" /><g
     inkscape:groupmode="layer"
     id="layer2"
     inkscape:label="spill" /><g
     inkscape:groupmode="layer"
     id="layer3"
     inkscape:label="rest" /><g
     inkscape:groupmode="layer"
     id="layer1"
     inkscape:label="cup"><path
       d="M 77.98944,75.877217 30.331669,71.036318 c -1.302299,-0.13228 -2.470467,0.819539 -2.60285,2.122833 -0.132077,1.300308 0.819943,2.466486 2.123237,2.59887 l 47.65777,4.8409 c 1.3023,0.132279 2.467381,-0.818847 2.599462,-2.119157 0.132279,-1.302299 -0.818545,-2.470365 -2.119848,-2.602547 z"
       id="path847" /><path
       style="fill:#7f5800;stroke:none;stroke-width:0.88183999999999985px;stroke-linecap:butt;stroke-linejoin:miter;stroke-opacity:1;fill-opacity:1"
       d="m 22.809146,39.731083 c -1.370994,-1.066792 -2.742048,-2.149445 -4.267743,-2.980063 -1.525694,-0.830618 -3.230598,-1.404494 -4.967395,-1.369758 -0.999848,0.02 -1.987915,0.24006 -2.987838,0.255872 -1.7181683,0.02717 -3.4392748,-0.573587 -4.767914,-1.663338 -1.3286392,-1.089752 -2.2544117,-2.65973 -2.5658723,-4.349651 -0.2491875,-1.35204 -0.1105908,-2.768173 0.3587895,-4.060376 0.4693803,-1.292203 1.264917,-2.459574 2.2689228,-3.398764 2.0080115,-1.878382 4.808555,-2.796355 7.558101,-2.775734 2.920026,0.0219 5.739806,1.029088 8.421949,2.183703 2.682144,1.154616 5.315232,2.476681 8.146975,3.189606 4.891762,1.23156 10.039758,0.570968 15.070587,0.94089 2.515414,0.184961 5.040106,0.638907 7.336871,1.681205 2.296766,1.042299 4.361848,2.711874 5.569577,4.926125 1.013198,1.857598 1.384702,4.044251 1.121694,6.14379 -0.263007,2.099539 -1.148554,4.106415 -2.458958,5.767764 -1.310404,1.661349 -3.037011,2.979768 -4.951021,3.881878 -1.914011,0.90211 -4.011956,1.39289 -6.124265,1.516934 -4.22462,0.248088 -8.436754,-0.960992 -12.223588,-2.850131 -3.786833,-1.889139 -7.198962,-4.441114 -10.538872,-7.039952 z"
       id="path1431"
       inkscape:original-d="M 22.809146,39.731083 C 11.083234,42.203656 16.653296,36.832059 13.574008,35.381262 10.49472,33.930465 11.583024,35.5527 10.58617,35.637134 9.5893148,35.721569 5.6978876,31.62933 3.2523837,29.624145 0.80687994,27.61896 10.043835,22.801751 13.438197,19.389271 c 3.394363,-3.412481 11.046858,3.583061 16.568924,5.373309 5.522066,1.790247 18.652265,5.033002 27.977035,7.54822 9.32477,2.515217 -23.449098,4.947712 -35.17501,7.420283 z"
       inkscape:path-effect="#path-effect1433" /><path
       d="m 85.198729,27.233437 -4.152075,0.996983 c -0.05808,-0.249267 -0.123482,-0.511787 -0.195291,-0.777187 -0.09021,-0.333409 -0.45414,-0.534849 -0.80631,-0.450287 L 16.656354,42.223634 c -0.355692,0.0854 -0.568445,0.425319 -0.478229,0.758726 4.807012,17.765153 23.1009,25.370667 29.536791,23.825302 L 67.023797,61.691043 C 72.034281,60.487941 77.583637,53.0327 79.964676,46.67563 l 9.854576,-2.366248 c 4.999042,-1.200354 8.029375,-6.003343 6.754911,-10.713348 -1.27424,-4.709175 -6.376392,-7.562951 -11.375434,-6.362597 z m 3.577656,13.221852 -5.982475,1.436492 c -0.311669,0.07484 -0.745475,-0.04181 -1.036859,-0.280104 -0.106186,-0.08402 -0.277815,-0.257449 -0.255648,-0.456204 0.0085,-0.06916 0.01167,-0.137058 0.0067,-0.203879 0.369374,-2.155517 0.511167,-4.344715 0.421255,-6.510073 0.08546,-1.496446 0.859857,-2.525904 2.134709,-2.832017 l 2.177287,-0.522803 c 2.741637,-0.658313 5.541526,0.908447 6.240136,3.490282 0.700164,2.584113 -0.963484,5.219994 -3.705122,5.878306 z"
       id="path845"
       style="stroke-width:0.88184" /></g></svg>
