<svg enable-background="new 0 0 100 100" fill="#000000" version="1.1" viewBox="0 0 100 100" xml:space="preserve" xmlns="http://www.w3.org/2000/svg"><path d="m49.947 0a50 50 0 0 0-39.826 19.838c1.0771-0.30275 2.1997-0.45763 3.3164-0.44922 2.92 0.0219 5.7398 1.029 8.4219 2.1836s5.3166 2.4766 8.1484 3.1895c4.8918 1.2316 10.039 0.57149 15.07 0.94141 2.5154 0.18496 5.0391 0.63935 7.3359 1.6816 2.2933 1.0407 4.3559 2.7068 5.5645 4.916l22.066-5.2988c0.35217-0.08456 0.71643 0.11776 0.80664 0.45117 0.07181 0.2654 0.13723 0.52807 0.19531 0.77734l4.1523-0.99805v0.001953c0.62482-0.15005 1.2507-0.23797 1.8711-0.26562 4.3427-0.19356 8.389 2.5064 9.5039 6.627 1.2745 4.7097-1.7549 9.5125-6.7539 10.713l-9.8555 2.3672c-2.381 6.3567-7.9309 13.813-12.941 15.016l-21.309 5.1152c-6.436 1.546-24.73-6.0592-29.537-23.824-0.09021-0.33341 0.12283-0.67437 0.47852-0.75977l7.1621-1.7188c-0.33596-0.25849-0.67556-0.51339-1.0098-0.77344-1.371-1.0668-2.7419-2.1498-4.2676-2.9805-1.5257-0.83062-3.23-1.4038-4.9668-1.3691-0.99985 0.02-1.9884 0.24005-2.9883 0.25586-1.7182 0.02717-3.439-0.5724-4.7676-1.6621-0.92628-0.75979-1.6502-1.7568-2.1133-2.8613a50 50 0 0 0-3.7051 18.887 50 50 0 0 0 50 50 50 50 0 0 0 50-50 50 50 0 0 0-50-50 50 50 0 0 0-0.052734 0zm37.32 30.941c-0.3403 0.015119-0.68269 0.062243-1.0254 0.14453l-2.1777 0.52344c-1.2748 0.3061-2.0493 1.3356-2.1348 2.832 0.089909 2.1654-0.052504 4.3543-0.42188 6.5098 0.004971 0.06682 0.002641 0.13396-0.005859 0.20312-0.02217 0.19875 0.14967 0.37301 0.25586 0.45703 0.29142 0.23829 0.72544 0.35414 1.0371 0.2793l5.9824-1.4355c2.7416-0.6583 4.4052-3.2948 3.7051-5.8789-0.61128-2.2591-2.8327-3.7406-5.2148-3.6348zm-57.416 40.094c0.15684-0.015912 0.31573-0.016535 0.47852 0l47.658 4.8418c1.3013 0.1321 2.2534 1.3012 2.1211 2.6035-0.1321 1.3004-1.2973 2.2514-2.5996 2.1191l-47.658-4.8418c-1.3033-0.1324-2.2551-1.2993-2.123-2.5996 0.11576-1.1404 1.0252-2.0117 2.123-2.123z" fill="#fff" stroke-width="1.5848"/></svg>
